<svg xmlns="http://www.w3.org/2000/svg"
     viewBox="0 0 935 256"
     width="935"
     height="256"
     role="img"
     aria-label="PADD logo"
     style="
       --padd-color: #f1c86e;
       fill: var(--padd-color);
       stroke: var(--padd-color);
     ">

  <!-- Outer LCARS-ish tablet -->
  <rect x="24" y="52" width="208" height="152" rx="34" ry="34" fill="none" stroke-width="16"/>

  <!-- Content lines -->
  <rect x="60" y="92"  width="120" height="18" rx="9"/>
  <rect x="60" y="122" width="140" height="18" rx="9"/>
  <rect x="60" y="152" width="110" height="18" rx="9"/>

  <!-- Status light/square -->
  <rect x="184" y="86" width="26" height="26" rx="6"/>

  <!-- Wordmark -->
  <g transform="translate(300,68)">
    <!-- P -->
    <path d="M0,120 V0 H70 q52,0 52,46 q0,46-52,46 H34 V120 Z
             M34,28 V64 H70 q18,0 18-18 q0-18-18-18 Z"/>
    <!-- A -->
    <path d="M150,120 195,0 h40 l45,120 h-36 l-8-22 h-46 l-8,22 Z
             M204,70 h28 l-14-40 Z"/>
    <!-- D -->
    <path d="M310,120 V0 h62 q70,0 70,60 q0,60-70,60 Z
             M344,28 v64 h28 q36,0 36-32 q0-32-36-32 Z"/>
    <!-- D -->
    <path d="M500,120 V0 h62 q70,0 70,60 q0,60-70,60 Z
             M534,28 v64 h28 q36,0 36-32 q0-32-36-32 Z"/>
  </g>
</svg>
